<svg xmlns="http://www.w3.org/2000/svg" width="40" height="34.995" viewBox="0 0 40 34.995"><defs><style>.a{fill:#fff;}</style></defs><path class="a" d="M11.187,45.748a2.5,2.5,0,1,0,2.5,2.5A2.5,2.5,0,0,0,11.187,45.748Zm8.749,0a2.5,2.5,0,1,0,2.5,2.5A2.5,2.5,0,0,0,19.936,45.748Zm8.749,0a2.5,2.5,0,1,0,2.5,2.5A2.5,2.5,0,0,0,28.685,45.748ZM19.936,32c-11.045,0-20,7.273-20,16.248a14.36,14.36,0,0,0,4.132,9.866A19.822,19.822,0,0,1,.447,63.832,1.875,1.875,0,0,0,1.814,67a18.954,18.954,0,0,0,10.866-3.617A24.126,24.126,0,0,0,19.936,64.5c11.045,0,20-7.273,20-16.248S30.982,32,19.936,32Zm0,28.746a20.3,20.3,0,0,1-6.124-.945l-1.773-.562-1.523,1.078a16.8,16.8,0,0,1-4.492,2.265,19.594,19.594,0,0,0,1.554-3.14l.828-2.2L6.8,55.544a10.744,10.744,0,0,1-3.109-7.3c0-6.89,7.288-12.5,16.248-12.5s16.248,5.609,16.248,12.5S28.9,60.746,19.936,60.746Z" transform="translate(0.066 -32)"/></svg>