<?xml version="1.0" standalone="no"?>
<!DOCTYPE svg PUBLIC "-//W3C//DTD SVG 1.1//EN" "http://www.w3.org/Graphics/SVG/1.1/DTD/svg11.dtd" >
<svg xmlns="http://www.w3.org/2000/svg">
<metadata>Generated by IcoMoon</metadata>
<defs>
<font id="icomoon" horiz-adv-x="1024">
<font-face units-per-em="1024" ascent="960" descent="-64" />
<missing-glyph horiz-adv-x="1024" />
<glyph unicode="&#x20;" horiz-adv-x="512" d="" />
<glyph unicode="&#xe900;" glyph-name="iconfont-address-card" d="M970.44 798.792h-916.88c-29.534 0-53.56-24.022-53.56-53.556v-594.458c0-29.534 24.026-53.572 53.56-53.572h916.88c29.534 0 53.56 24.038 53.56 53.572v594.458c0 29.534-24.026 53.556-53.56 53.556zM264.34 392.426v8.944c0 4.596-0.76 9.132-2.718 14.348-0.376 0.496-37.586 50.714-37.586 96.118 0 54.1 33.976 93.37 80.788 93.37s80.788-39.27 80.788-93.37c0-45.404-37.208-95.622-38.044-96.988-1.502-4.332-2.264-8.866-2.264-13.478v-8.944c0-12.36 7.256-23.68 18.614-28.898l60.632-24.768c13.168-6.056 22.57-18.168 25.116-32.096l2.862-36.832h-295.408l2.814 36.506c2.588 14.256 11.996 26.368 25.036 32.36l60.884 24.892c11.23 5.156 18.486 16.476 18.486 28.836zM858.636 347.208v-59.114h-325.146v59.114zM858.636 474.414v-59.116h-325.146v59.116zM462.962 542.504v59.114h395.672v-59.114z" />
<glyph unicode="&#xe901;" glyph-name="iconfont-angle-down" d="M880.378 775.83l-368.34-368.34-368.378 368.34-143.66-143.66 512.038-512 511.962 512z" />
<glyph unicode="&#xe902;" glyph-name="iconfont-angle-left" d="M839.832 816.358l-143.664 143.642-512-512.010 512-511.99 143.664 143.644-368.348 368.346z" />
<glyph unicode="&#xe903;" glyph-name="iconfont-angle-right" d="M327.832 960l-143.664-143.644 368.348-368.348-368.348-368.364 143.664-143.644 512 512.008z" />
<glyph unicode="&#xe904;" glyph-name="iconfont-ban" d="M874.046 810.046c-199.968 199.938-524.126 199.938-724.094 0-199.938-199.968-199.938-524.126 0-724.094 199.938-199.938 524.156-199.938 724.094 0s199.938 524.158 0 724.094zM274.422 685.578c108.782 108.782 274.032 126.906 402.032 55.062l-457.094-457.094c-71.844 128-53.72 293.25 55.062 402.032zM749.61 210.422c-108.782-108.782-274.062-126.938-402.062-55.094l457.126 457.126c71.842-128 53.686-293.282-55.064-402.032z" />
<glyph unicode="&#xe905;" glyph-name="iconfont-calendar" d="M298.386 752.95c31.988 0 57.928 25.94 57.928 57.946v91.176c0 31.988-25.94 57.928-57.928 57.928-32.006 0-57.946-25.94-57.946-57.928v-91.178c0-32.004 25.94-57.944 57.946-57.944zM725.63 752.95c31.99 0 57.928 25.94 57.928 57.946v91.176c0.002 31.988-25.938 57.928-57.928 57.928-32.004 0-57.944-25.94-57.944-57.928v-91.178c0-32.004 25.94-57.944 57.944-57.944zM870.328 877.426h-35.85v-66.53c0-60.034-48.83-108.864-108.846-108.864-60.034 0-108.862 48.83-108.862 108.864v66.53h-209.54v-66.53c0-60.034-48.828-108.864-108.844-108.864-60.032 0-108.864 48.83-108.864 108.864v66.53h-35.85c-77.056 0-139.526-62.468-139.526-139.526v-662.374c0-77.056 62.472-139.526 139.526-139.526h716.656c77.056 0 139.526 62.47 139.526 139.526v662.374c0 77.056-62.472 139.526-139.526 139.526zM900.046 100.024c0-35.652-29.006-64.658-64.658-64.658h-646.776c-35.652 0-64.658 29.006-64.658 64.658v518.224h776.094v-518.224zM381.458 216.462h102.382v-102.384h-102.382zM381.458 375.162h102.382v-102.38h-102.382zM222.772 216.462h102.38v-102.384h-102.38zM222.772 375.162h102.38v-102.38h-102.38zM698.846 533.866h102.38v-102.382h-102.38zM540.16 533.866h102.398v-102.382h-102.398zM540.16 375.162h102.398v-102.38h-102.398zM698.846 216.462h102.38v-102.384h-102.38zM698.846 375.162h102.38v-102.38h-102.38zM540.16 216.462h102.398v-102.384h-102.398zM381.458 533.866h102.382v-102.382h-102.382zM222.772 533.866h102.38v-102.382h-102.38z" />
<glyph unicode="&#xe906;" glyph-name="iconfont-chart-pie" d="M512.554 448v512c-44.204 0-87.132-5.598-128.136-16.16-46.93-12-91.46-30.558-132.144-54.72-74.64-44-137.11-106.398-181.316-180.96-45.17-76.16-70.958-165.116-70.958-260.16 0-141.278 57.5-269.278 150.242-361.918 6.566-6.564 13.296-12.962 20.184-19.204 10.090-8.958 20.664-17.598 31.394-25.918 3.204-2.402 6.564-4.96 9.93-7.36 21.46-15.52 44.046-29.442 67.914-41.602 7.532-3.84 15.38-7.52 23.226-11.040 26.106-11.68 53.336-21.28 81.528-28.64 41.004-10.718 83.934-16.32 128.136-16.32 44.372 0 87.296 5.602 128.14 16.16 47.094 12.16 91.624 30.72 132.304 54.884 8.972 5.276 17.782 10.718 26.274 16.476 20.34 13.762 39.722 28.962 57.98 45.602 6.090 5.438 12.012 11.2 17.782 16.962l-234.338 233.918zM825.38 316.64l128.78-128.64c39.724 66.88 64.39 143.52 69.84 225.442zM884.96 799.68l-244.266-119.2v-120.16l311.062 151.84c-18.896 31.52-41.322 60.8-66.796 87.52zM640.696 943.84v-156.48l164.984 80.48c-49.336 34.562-105.078 60.48-164.984 76zM753.62 388.32l266.692 130.238c-5.126 37.122-14.258 72.96-26.91 107.044l-320.672-156.48z" />
<glyph unicode="&#xe907;" glyph-name="iconfont-check" d="M878.933 810.667l-443.733-443.733-292.267 294.4-142.933-142.933 435.2-435.2 142.933 142.933 443.733 441.6z" />
<glyph unicode="&#xe908;" glyph-name="iconfont-cloud-upload" d="M854.516 471.502c0.408 5.208 0.676 10.456 0.676 15.77 0 110.466-89.55 200.016-200.016 200.016-34.042 0-66.084-8.528-94.144-23.528-30.272 85.266-111.62 146.344-207.266 146.344-121.458 0-219.92-98.462-219.92-219.92 0-22.832 3.482-44.85 9.94-65.556-84.178-33.136-143.786-115.104-143.786-211.048 0-125.254 101.538-226.792 226.792-226.792h585.284c6.042-0.568 12.158-0.89 18.35-0.89 106.908 0 193.576 86.666 193.576 193.576-0.002 98.744-73.954 180.16-169.486 192.028zM623.418 367.546h-40.904c-12.088 0-21.978-9.89-21.978-21.98v-116.148c0-12.088-9.892-21.98-21.978-21.98h-53.116c-12.088 0-21.978 9.892-21.978 21.98v116.148c0 12.088-9.89 21.98-21.978 21.98h-40.904c-12.088 0-16 7.88-8.694 17.51l106.828 140.81c7.304 9.632 19.262 9.632 26.568 0l106.828-140.81c7.306-9.632 3.394-17.51-8.694-17.51z" />
<glyph unicode="&#xe909;" glyph-name="iconfont-cog" d="M512 559.056c-61.234 0-111.054-49.828-111.054-111.054 0-61.234 49.82-111.046 111.054-111.046 61.228 0 111.046 49.812 111.046 111.046 0 61.226-49.818 111.054-111.046 111.054zM988.46 556.346l-85.436 5.228c-14.9 1.046-27.704 10.452-32.93 24.296-14.634 37.626-34.75 72.376-59.836 103.212-9.14 11.5-10.968 27.18-4.436 40.5l38.148 76.562c9.14 18.024 2.61 39.976-14.898 49.906l-122.282 70.548c-17.242 10.188-39.452 4.962-50.688-11.756l-47.296-71.594c-8.102-12.282-22.734-18.812-37.36-16.462-19.336 3.132-39.196 4.704-59.578 4.704-20.116 0-39.976-1.572-59.578-4.704-14.626-2.35-29.258 4.18-37.36 16.462l-47.296 71.594c-10.978 16.718-33.18 21.944-50.43 11.756l-122.54-70.548c-17.25-9.93-23.78-31.882-14.898-49.906l38.148-76.562c6.796-13.322 4.962-29-4.444-40.5-24.82-30.836-45.196-65.586-59.57-103.212-5.228-13.844-18.29-23.25-32.924-24.296l-85.444-5.228c-19.86-1.048-35.532-17.766-35.532-37.892v-141.092c0-20.116 15.672-36.58 35.532-37.892l85.444-5.226c14.634-1.040 27.696-10.446 32.924-24.032 14.374-37.632 34.748-72.382 59.57-103.212 9.406-11.5 11.242-27.436 4.444-40.764l-38.148-76.556c-8.884-18.032-2.352-39.718 14.898-49.906l122.54-70.556c17.25-9.93 39.452-4.704 50.43 12.024l47.296 71.328c8.102 12.28 22.734 18.82 37.36 16.468 19.602-3.14 39.46-4.704 59.578-4.704 20.382 0 40.242 1.564 59.578 4.704 14.626 2.35 29.258-4.188 37.36-16.468l47.296-71.328c11.236-16.728 33.446-21.954 50.688-12.024l122.282 70.556c17.508 10.188 24.038 31.874 14.898 49.906l-38.148 76.556c-6.532 13.328-4.704 29.266 4.436 40.764 25.086 30.828 45.204 65.58 59.836 103.212 5.226 13.586 18.030 22.992 32.93 24.032l85.436 5.226c19.86 1.312 35.54 17.774 35.54 37.892v141.092c0 20.126-15.68 36.844-35.54 37.892zM743.108 447.908c0-127.508-103.468-230.978-231.242-230.978-127.508 0-230.984 103.468-230.984 230.978 0 127.508 103.476 230.984 230.984 230.984 127.774 0 231.242-103.476 231.242-230.984z" />
<glyph unicode="&#xe90a;" glyph-name="iconfont-comments" d="M583.796 178.956h-149.702c-143.322 0-259.782 116.586-259.782 259.78v256.416c0 25.228 3.804 49.578 10.594 72.656 0.782 2.532 1.406 5.118 2.282 7.618h-0.092c0.030 0.108 0.054 0.22 0.092 0.328h-10.5c-97.468 0-176.688-79.352-176.688-176.822v-300.89c0-87.468 78.602-134.422 147.32-158.314l-3.742-119.258c0.124-11.748 7.118-22.242 17.992-26.868 3.742-1.616 7.742-2.5 11.742-2.5 7.252 0 14.5 2.75 20.118 7.876l203.804 122.25h225.672c4.384 0 8.634 0.484 12.93 0.804 3.016 0.14 5.954 0.188 8.97 0.328l-0.228 0.212c0.148 0.022 0.298 0.008 0.446 0.030zM814.242 904.894h-380.204c-115.664 0-209.756-94.1-209.756-209.766v-256.412c0-115.664 94.092-209.758 209.756-209.758h169.252l151.96-139.586c15.884-14.602 36.368-22.258 57.14-22.258 11.312 0 22.704 2.274 33.492 6.938 30.594 13.226 50.54 43.204 50.922 76.532l1.108 95.788c74.142 32.374 126.088 106.406 126.088 192.344v256.412c0 115.666-94.094 209.766-209.758 209.766zM812.156 151.746l-175.97 161.648h-202.148c-69.21 0-125.32 56.11-125.32 125.322v256.412c0 69.212 56.11 125.322 125.32 125.322h380.204c69.212 0 125.314-56.11 125.314-125.322v-256.412c0-69.212-56.102-125.322-125.314-125.322l-1.116-96.976zM771.070 696.762h-293.86c-10.572 0-19.14-8.564-19.14-19.132 0-10.578 8.57-19.14 19.14-19.14h293.86c10.57 0 19.14 8.564 19.14 19.14 0.002 10.568-8.57 19.132-19.14 19.132zM771.070 596.308h-293.86c-10.572 0-19.14-8.572-19.14-19.14 0-10.572 8.57-19.14 19.14-19.14h293.86c10.57 0 19.14 8.57 19.14 19.14 0.002 10.57-8.57 19.14-19.14 19.14zM636.844 495.856h-159.632c-10.572 0-19.14-8.572-19.14-19.14 0-10.572 8.57-19.14 19.14-19.14h159.632c10.572 0 19.14 8.57 19.14 19.14 0 10.568-8.57 19.14-19.14 19.14z" />
<glyph unicode="&#xe90b;" glyph-name="iconfont-copy" d="M929.792 828.928l-104.448 104.448c-18.432 16.384-43.008 26.624-67.584 26.624h-344.064c-53.248 0-96.256-43.008-96.256-96.256v-96.256h-159.744c-53.248 0-96.256-43.008-96.256-96.256v-641.024c0-51.2 43.008-94.208 96.256-94.208h448.512c53.248 0 96.256 43.008 96.256 96.256v96.256h159.744c53.248 0 96.256 43.008 96.256 96.256v534.528c-2.048 26.624-10.24 51.2-28.672 69.632zM593.92 32.256h-423.936c-6.144 0-12.288 6.144-12.288 12.288v616.448c0 6.144 6.144 12.288 12.288 12.288h147.456v-448.512c0-53.248 43.008-96.256 96.256-96.256h192.512v-83.968c0-8.192-6.144-12.288-12.288-12.288zM849.92 224.768h-423.936c-6.144 0-12.288 6.144-12.288 12.288v614.4c0 6.144 6.144 12.288 12.288 12.288h212.992v-176.128c0-26.624 20.48-47.104 47.104-47.104h176.128v-403.456c0-8.192-6.144-12.288-12.288-12.288zM862.208 736.768h-129.024v126.976h18.432c4.096 0 6.144-2.048 8.192-4.096l96.256-96.256c2.048-2.048 4.096-6.144 4.096-8.192v-18.432zM757.76 513.536h-239.616c-16.384 0-30.72 14.336-30.72 30.72s14.336 30.72 30.72 30.72h239.616c16.384 0 30.72-14.336 30.72-30.72s-14.336-30.72-30.72-30.72zM757.76 402.944h-239.616c-16.384 0-30.72 14.336-30.72 30.72s14.336 30.72 30.72 30.72h239.616c16.384 0 30.72-14.336 30.72-30.72s-14.336-30.72-30.72-30.72z" />
<glyph unicode="&#xe90c;" glyph-name="iconfont-door-open" d="M514.202 771.426v-0.322h166.422v-220.726h72.132v292.858h-238.554v-71.592zM752.756 345.3v0.32h-72.132v-220.726h-166.422v-72.132h238.554v291.648zM1019.132 457.84l-169.304 128.188c-2.266 1.756-4.844 2.476-7.322 2.476-6.382 0-12.358-5.048-12.358-12.368v-54.61c0-6.804-5.572-12.366-12.368-12.366h-174.256c-6.796 0-12.258-5.46-12.258-12.266v-97.788c0-6.804 5.46-12.266 12.258-12.266h174.256c6.796 0 12.368-5.564 12.368-12.36v-54.618c0-7.32 5.976-12.366 12.358-12.366 2.476 0 5.056 0.718 7.322 2.476l169.304 128.188c6.49 4.946 6.49 14.734 0 19.68zM409.304 937.112c-4.844-0.1-9.892-0.726-14.946-2.164l-362.616-104.696c-18.858-5.46-31.742-22.672-31.742-42.352v-679.804c0-19.68 12.884-36.882 31.742-42.35l362.616-104.696c5.054-1.436 10.102-2.164 14.946-2.164 28.54 0 53.374 23.188 53.374 53.586v871.054c0 30.398-24.834 53.586-53.374 53.586zM319.030 405.284v85.328c0 5.664 4.54 10.094 10.102 10.094h33.492c5.564 0 9.992-4.43 9.992-10.094v-85.328c0-5.564-4.428-9.992-9.992-9.992h-33.492c-5.562 0-10.102 4.43-10.102 9.992z" />
<glyph unicode="&#xe90d;" glyph-name="iconfont-exclamation-triangle" d="M1010.19 145.75l-408.65 707.834c-18.412 31.888-52.722 51.698-89.548 51.698-36.824 0-71.104-19.81-89.502-51.698l-408.68-707.802c-18.412-31.888-18.412-71.492 0-103.38s52.708-51.684 89.516-51.684h817.348c36.81 0 71.136 19.794 89.518 51.684 18.412 31.888 18.412 71.492-0.002 103.348zM512.008 107.126c-35.336 0-64.026 28.66-64.026 64.008 0 35.336 28.69 63.994 64.026 63.994 35.334 0 63.994-28.658 63.994-63.994 0-35.35-28.66-64.008-63.994-64.008zM551.44 311.978c0-21.78-17.668-39.418-39.432-39.418-21.796 0-39.434 17.636-39.434 39.418l-24.592 289.448c0 35.352 28.69 64.010 64.026 64.010 35.334 0 63.994-28.66 63.994-64.010z" />
<glyph unicode="&#xe90e;" glyph-name="iconfont-file" d="M796.84 895.072h-118.364c-2.414 36.212-32.244 64.928-69.092 64.928h-194.754c-36.846 0-66.678-28.716-69.092-64.928h-118.394c-58.744 0-106.524-47.78-106.524-106.524v-751.468c0-27.524 11.432-54.204 31.34-73.176 18.898-17.98 43.646-27.888 69.708-27.904 1.63 0 3.26 0.044 4.888 0.12l520.046 25.172c20.888 0.18 41.13 4.344 60.178 12.412 28.248 11.96 52.304 31.764 69.544 57.252 17.692 26.184 27.058 56.768 27.058 88.502v669.090c-0.002 58.744-47.798 106.524-106.542 106.524zM821.74 119.474c0-10.376-2.036-20.392-6.002-29.818-5.792-13.71-15.4-25.352-27.796-33.724-12.608-8.52-27.406-13.030-42.742-13.046-9.744 0.016-19.366 2.382-28.552 7.044-15.428 7.828-28.776 21.732-38.58 40.148-11.734 22.080-17.948 50.118-17.964 81.112v16.048c0 10.21-5.082 19.652-13.618 25.292-4.946 3.242-10.694 4.962-16.62 4.962-4.148 0-8.19-0.844-11.96-2.474l-404.638-174.348c-1.010-0.438-2.066-0.648-3.152-0.648-1.538 0-3.032 0.452-4.314 1.296-2.218 1.464-3.544 3.924-3.544 6.576v735.872c0 16.364 13.288 29.668 29.652 29.668h120.568c11.356-22.97 34.794-38.898 62.152-38.898h194.754c27.36 0 50.798 15.928 62.154 38.898h120.522c16.378 0 29.68-13.302 29.68-29.668z" />
<glyph unicode="&#xe90f;" glyph-name="iconfont-info-circle" d="M511.984 959.984c-282.732 0-511.984-229.236-511.984-511.984s229.252-511.984 511.984-511.984c282.798 0 512.016 229.234 512.016 511.984s-229.218 511.984-512.016 511.984zM601.884 212.944c-20.71-22.984-32.58-36.644-54.934-58.014-33.836-32.354-72.256-40.968-102.126-9.032-42.934 45.918 2.096 185.608 3.194 190.898 8.064 37.128 24.16 111.334 24.16 111.334s-34.774-21.288-55.418-28.838c-15.226-5.564-32.45 1.742-36.708 16.468-3.968 13.644-0.808 22.322 7.548 31.644 20.708 22.968 32.578 36.628 54.934 57.998 33.868 32.37 72.256 40.966 102.126 9.048 42.934-45.918 11.256-121.464 0.128-174.994-1.096-5.306-27.484-127.254-27.484-127.254s34.774 21.29 55.418 28.854c15.256 5.548 32.482-1.774 36.74-16.484 3.97-13.646 0.778-22.322-7.578-31.628zM546.338 607.754c-47.772-4.192-89.868 31.128-94.062 78.934-4.16 47.756 31.16 89.868 78.934 94.028 47.74 4.194 89.868-31.16 94.030-78.916 4.192-47.758-31.162-89.886-78.902-94.046z" />
<glyph unicode="&#xe910;" glyph-name="iconfont-pencil" d="M1008.524 826.5l-118.072 118.088c-20.582 20.568-53.876 20.534-74.444 0l-76.556-76.556 192.564-192.532 76.508 76.59c20.55 20.566 20.584 53.876 0 74.41zM65.63 194.158l-65.58-258.158 258.11 65.66 638.796 638.862-192.498 192.53zM186.358 150.416l-43.742 43.742 556.578 556.578 43.774-43.774z" />
<glyph unicode="&#xe911;" glyph-name="iconfont-plus-circle" d="M718.488 511.992h-119.976c-12.434 0-22.516 10.086-22.516 22.516v119.984c0 12.43-10.078 22.508-22.512 22.508h-82.972c-12.434 0-22.516-10.078-22.516-22.508v-119.984c0-12.43-10.078-22.516-22.512-22.516h-119.976c-12.438 0-22.516-10.078-22.516-22.516v-82.968c0-12.43 10.078-22.516 22.516-22.516h119.976c12.434 0 22.512-10.078 22.512-22.516v-119.968c0-12.438 10.082-22.516 22.516-22.516h82.972c12.434 0 22.512 10.078 22.512 22.516v119.968c0 12.438 10.082 22.516 22.516 22.516h119.976c12.434 0 22.516 10.086 22.516 22.516v82.968c0 12.438-10.082 22.516-22.516 22.516zM512 960c-282.774 0-512-229.234-512-512 0-282.774 229.226-512 512-512 282.766 0 512 229.226 512 512 0 282.766-229.234 512-512 512zM512 64c-211.742 0-384 172.258-384 384 0 211.734 172.258 384 384 384 211.734 0 384-172.266 384-384 0-211.742-172.266-384-384-384z" />
<glyph unicode="&#xe912;" glyph-name="iconfont-search" d="M999.032 81.374l-159.094 159.126-120.438-120.438 159.094-159.126c16.094-16.062 37.468-24.938 60.25-24.938 22.718 0 44.094 8.876 60.188 24.938 16.126 16.094 24.968 37.5 24.968 60.25s-8.874 44.126-24.968 60.188zM798.782 235.374l-82.782 82.814c0.126 0.188 0.126 0.376 0.25 0.5 53.126 69.438 82.312 155.376 82.25 242.062 0.094 106.562-41.406 206.876-116.938 282.312-75.344 75.406-175.436 116.938-282.812 116.938-106.406 0-206.468-41.532-281.812-116.938-75.532-75.438-117.064-175.75-116.938-282.344-0.094-106.594 41.438-206.844 116.906-282.282 75.376-75.438 175.532-116.938 282.376-116.938h0.376c86.468 0 172.282 29.188 241.656 82.25 0.156 0.126 0.312 0.188 0.468 0.25l82.812-82.812zM589.376 370.624c-50.782-50.688-118.25-78.688-190.156-78.812-71.844 0.126-139.344 28.126-190.094 78.812-50.718 50.718-78.688 118.25-78.782 190.126 0.094 71.876 28.062 139.376 78.75 190.126 50.75 50.688 118.25 78.626 190.126 78.782 0.032 0.032 0.062 0 0.062 0 71.844-0.156 139.344-28.094 190.094-78.782 50.688-50.718 78.656-118.25 78.782-190.188-0.126-71.844-28.096-139.376-78.782-190.064z" />
<glyph unicode="&#xe913;" glyph-name="iconfont-tachometer" d="M511.992 789.716c-282.768 0-511.992-229.222-511.992-512.008 0-40.082 4.614-79.074 13.328-116.5 4.372-18.74 2.28-7.726 2.28-7.726 8.204-27.98 33.852-47.196 63.008-47.196h866.582c29.224 0 54.94 19.318 63.076 47.382 0 0-1.378-9.122 3.098 10.724 8.254 36.456 12.628 74.376 12.628 113.316 0 282.786-229.24 512.008-512.008 512.008zM706.664 673.606c8.1 14.024 26.074 18.842 40.1 10.74 14.058-8.118 18.858-26.058 10.74-40.116-8.118-14.024-26.042-18.86-40.082-10.724-14.060 8.086-18.86 26.042-10.758 40.1zM511.992 747.252c16.22 0 29.35-13.14 29.35-29.36 0-16.186-13.13-29.342-29.35-29.342s-29.352 13.156-29.352 29.342c0 16.22 13.132 29.36 29.352 29.36zM71.806 248.366c-16.194 0-29.352 13.122-29.352 29.342s13.156 29.378 29.352 29.378c16.212 0 29.368-13.156 29.368-29.378 0.002-16.22-13.156-29.342-29.368-29.342zM156.208 483.12c-8.11-14.022-26.058-18.856-40.116-10.74-14.024 8.118-18.848 26.058-10.74 40.1 8.112 14.042 26.056 18.876 40.116 10.756 14.026-8.1 18.85-26.092 10.74-40.116zM306.57 633.508c-14.032-8.136-31.98-3.302-40.090 10.74-8.11 14.040-3.31 31.98 10.74 40.098 14.032 8.102 31.988 3.284 40.116-10.74 8.084-14.040 3.284-32.014-10.766-40.098zM592.224 266.544c-5.446-39.486-39.248-69.918-80.232-69.918-44.78 0-81.084 36.304-81.084 81.082 0 44.796 36.304 81.1 81.084 81.1 9.208 0 18.040-1.616 26.296-4.442 31.86-10.926 54.786-41.086 54.786-76.656 0-3.798-0.34-7.492-0.85-11.166zM836.816 556.986l-222.212-261.118c-6.52 36.814-32.508 67.942-68.794 80.402-5.992 2.058-12.084 3.508-18.212 4.442l280.844 206.792c10.11 7.472 22.994 7.3 30.124-0.408 7.186-7.626 6.436-20.51-1.75-30.11zM907.89 472.38c-14.060-8.118-32.014-3.318-40.116 10.74-8.1 14.024-3.286 32.016 10.74 40.116 14.060 8.118 32.016 3.286 40.116-10.756s3.286-31.982-10.74-40.1zM952.176 248.366c-16.22 0-29.36 13.122-29.36 29.342s13.14 29.378 29.36 29.378 29.36-13.156 29.36-29.378c0-16.22-13.14-29.342-29.36-29.342z" />
<glyph unicode="&#xe914;" glyph-name="iconfont-time" d="M512 960c-282.413 0-512-229.587-512-512s229.587-512 512-512 512 229.587 512 512-227.556 512-512 512zM512 64c-211.302 0-384 172.698-384 384s172.698 384 384 384 384-172.698 384-384c0-213.333-170.667-384-384-384zM180.825 472.381c0-8.127-2.032-16.254-2.032-26.413 0-8.127 0-16.254 2.032-26.413h69.079c-2.032 8.127-2.032 16.254-2.032 26.413s0 16.254 2.032 26.413zM845.206 472.381h-69.079c2.032-8.127 2.032-16.254 2.032-26.413s0-16.254-2.032-26.413h69.079c0 8.127 2.032 16.254 2.032 26.413s-2.032 18.286-2.032 26.413zM538.413 710.095v69.079c-8.127 0-16.254 2.032-26.413 2.032-8.127 0-16.254 0-26.413-2.032v-69.079c8.127 2.032 16.254 2.032 26.413 2.032s18.286 0 26.413-2.032zM487.619 183.873v-69.079c8.127 0 16.254-2.032 26.413-2.032 8.127 0 16.254 0 26.413 2.032v69.079c-8.127-2.032-16.254-2.032-26.413-2.032s-18.286 2.032-26.413 2.032zM384 728.381c-10.159 14.222-28.444 20.317-44.698 10.159-14.222-8.127-20.317-28.444-10.159-44.698l115.81-190.984c14.222 16.254 32.508 28.444 56.889 30.476zM688.762 360.635l-89.397 67.048c-6.095-22.349-18.286-40.635-36.571-52.825l89.397-65.016c6.095-4.063 12.19-6.095 18.286-6.095 10.159 0 20.317 4.063 26.413 12.19 8.127 14.222 4.063 32.508-8.127 44.698zM512 490.667c-24.381 0-42.667-18.286-42.667-42.667s18.286-42.667 42.667-42.667 42.667 18.286 42.667 42.667c0 22.349-18.286 42.667-42.667 42.667z" />
<glyph unicode="&#xe915;" glyph-name="iconfont-times-circle" d="M511.996 959.996c-282.764 0-511.996-229.24-511.996-512.004s229.232-511.988 511.996-511.988c282.772 0 512.004 229.224 512.004 511.988s-229.232 512.004-512.004 512.004zM749.306 293.906l-83.192-83.216-154.118 154.118-154.104-154.118-83.198 83.216 154.11 154.118-154.11 154.088 83.192 83.2 154.11-154.12 154.112 154.12 83.198-83.184-154.118-154.104z" />
<glyph unicode="&#xe916;" glyph-name="iconfont-trash" d="M937.002 848.002v0.308h-241.394c-36.896 1.304-66.54 37.364-66.54 81.776 0 0.104 0 0.21 0 0.316 0.054 16.132-10.076 29.598-23.54 29.598h-187.054c-13.46 0-23.596-13.466-23.542-29.598v-0.316c0-44.412-29.644-80.472-66.54-81.776h-241.394v-93.212h850.004v92.626zM137.616 129.962c0-107.118 86.836-193.962 193.954-193.962h360.862c107.116 0 193.954 86.844 193.954 193.962v563.836h-748.77zM463.886 132.972v399.944c0 22.42 18.172 40.594 40.602 40.594 22.412 0 40.594-18.172 40.594-40.594v-399.942c0-22.428-18.18-40.6-40.594-40.6-22.43-0.002-40.602 18.172-40.602 40.598zM727.008 132.972c0-22.428-18.172-40.6-40.594-40.6-22.42 0-40.594 18.172-40.594 40.6v399.944c0 22.42 18.172 40.594 40.594 40.594 22.42 0 40.594-18.172 40.594-40.594zM378.188 132.972c0-22.428-18.18-40.6-40.602-40.6s-40.594 18.172-40.594 40.6v399.944c0 22.42 18.172 40.594 40.594 40.594s40.602-18.172 40.602-40.594z" />
<glyph unicode="&#xe917;" glyph-name="iconfont-truck" d="M995.136 839.108h-491.048c-15.944 0-28.852-12.92-28.852-28.866v-453.406c0-15.944 12.908-28.864 28.852-28.864h491.048c15.944 0 28.864 12.92 28.864 28.864v453.406c0 15.946-12.92 28.866-28.864 28.866zM233.366 251.32c-53.672 0-97.212-43.528-97.212-97.2 0-53.7 43.54-97.228 97.212-97.228 53.688 0 97.216 43.528 97.216 97.228-0.002 53.672-43.53 97.2-97.216 97.2zM233.366 110.348c-24.158 0-43.742 19.598-43.742 43.772 0 24.146 19.584 43.73 43.742 43.73 24.16 0 43.744-19.584 43.744-43.73 0-24.174-19.584-43.772-43.744-43.772zM807.6 251.32c-53.672 0-97.2-43.528-97.2-97.2 0-53.7 43.528-97.228 97.2-97.228 53.686 0 97.212 43.528 97.212 97.228 0 53.672-43.526 97.2-97.212 97.2zM807.6 110.348c-24.146 0-43.73 19.598-43.73 43.772 0 24.146 19.584 43.73 43.73 43.73 24.158 0 43.742-19.584 43.742-43.73 0-24.174-19.584-43.772-43.742-43.772zM400.238 702.754h-219.234c-7.122 0-13.914-3.164-18.46-8.662l-156.96-188.326c-3.612-4.302-5.584-9.756-5.584-15.396v-251.57c0-13.296 10.778-24.058 24.060-24.058h73.672c23.268 51.8 75.258 88.048 135.634 88.048 60.392 0 112.366-36.248 135.62-88.048h55.342v463.954c-0.002 13.298-10.794 24.058-24.090 24.058zM87.862 487.894c0 5.698 1.956 11.224 5.554 15.64l100.206 123.388c4.72 5.814 11.8 9.18 19.268 9.18h98.148c13.714 0 24.808-11.108 24.808-24.822v-140.022c0-13.698-11.094-24.808-24.808-24.808h-198.384c-13.684 0-24.792 11.108-24.792 24.808zM487.064 282.416c-7.482 0-13.526-6.058-13.526-13.54v-40.606c0-7.47 6.044-13.526 13.526-13.526h184.932c12.748 28.418 34.144 52.046 60.838 67.672zM1008.762 282.416h-126.38c26.692-15.628 48.090-39.254 60.838-67.672h65.542c7.482 0 13.526 6.056 13.526 13.526v40.606c0 7.482-6.044 13.54-13.526 13.54z" />
<glyph unicode="&#xe918;" glyph-name="iconfont-user" d="M955.518 56.648c-8.336 45.8-38.484 84.66-80.786 104.098l-182.054 74.398c-30.386 13.956-49.848 44.328-49.848 77.762v26.788c0 12.688 2.102 25.278 6.25 37.27 0 0 114.516 152.804 114.516 293.7 0 176.118-112.648 289.336-251.594 289.336-138.948 0-251.602-113.218-251.602-289.336 0-140.894 114.52-293.7 114.52-293.7 4.128-11.992 6.25-24.582 6.25-37.27v-26.788c0-33.434-19.48-63.804-49.848-77.762l-182.056-74.398c-42.3-19.438-72.472-58.296-80.784-104.098l-9.356-120.648h905.748z" />
<glyph unicode="&#xe919;" glyph-name="iconfont-user-circle" d="M512 960c-282.398 0-512-229.766-512-512 0-134.564 51.836-261.766 146.078-358.078 96.96-99.358 226.884-153.922 365.922-153.922 138.876 0 268.796 54.564 365.758 153.922 94.242 96.312 146.242 223.514 146.242 358.078 0 282.234-229.758 512-512 512zM207.75 139.078c84.788 53.428 194.336 111.96 202.008 113.718h4.804v92c-11.048 5.766-18.564 20-23.688 34.078-4.946 13.304-7.306 26.274-8.040 31.624 0 0.118-0.022 0.336-0.014 0.4-0.016-0.008-0.032 0-0.048-0.008-0.014 0.076-0.038 0.234-0.054 0.312-35.038-11.688-40.156 53.914-41.756 70.556-1.602 15.038 5.116 25.602 9.756 29.756-1.116 2.406-2.562 5.922-3.844 10.086 0 0.156 0 0.156 0 0.156-13.438 60.804-5.594 78.562 21.282 127.038 27.204 49.124 95.204 96.484 134.882 95.844 3.040 0 6.078 0 8.962-0.32 47.68-3.204 73.436-26.718 93.758-63.038 12.32 0 33.756-16.32 49.922-32.484 7.038-6.876 13.116-13.922 16.96-19.516 11.196-16 13.438-41.766 11.68-65.446-1.282-16.156-4.164-31.516-7.358-42.076v-0.156c-1.282-4.164-2.564-7.68-3.844-10.086 4.804-4.156 11.36-14.718 9.922-29.756-1.756-16.642-6.882-82.244-41.756-70.556 0-0.328 0-0.64-0.164-0.97-1.602-11.030-7.358-51.67-31.68-65.436v-92h4.642c7.148-1.632 102.702-52.476 184.14-102.594 6.054-3.75 12.038-7.492 17.89-11.22-81.44-80.602-188.932-124.75-304.112-124.75-104.758 0-203.344 36.734-281.766 104.18-7.67 6.624-15.218 13.454-22.484 20.664z" />
</font>
</defs>
</svg>
