<svg xmlns="http://www.w3.org/2000/svg" width="45" height="35" viewBox="0 0 45 35"><defs><style>.a{fill:#fff;}</style></defs><path class="a" d="M41.25,32H3.75A3.751,3.751,0,0,0,0,35.75v27.5A3.751,3.751,0,0,0,3.75,67h37.5A3.751,3.751,0,0,0,45,63.25V35.75A3.751,3.751,0,0,0,41.25,32Zm0,31.25H3.75V35.75h37.5Zm-25-13.75a5,5,0,1,0-5-5A5,5,0,0,0,16.25,49.5Zm-7,10h14A1.638,1.638,0,0,0,25,58V56.5c0-2.484-2.352-4.5-5.25-4.5-.844,0-1.461.625-3.5.625-2.1,0-2.609-.625-3.5-.625-2.9,0-5.25,2.016-5.25,4.5V58A1.638,1.638,0,0,0,9.25,59.5Zm18.875-5h8.75a.627.627,0,0,0,.625-.625v-1.25A.627.627,0,0,0,36.875,52h-8.75a.627.627,0,0,0-.625.625v1.25A.627.627,0,0,0,28.125,54.5Zm0-5h8.75a.627.627,0,0,0,.625-.625v-1.25A.627.627,0,0,0,36.875,47h-8.75a.627.627,0,0,0-.625.625v1.25A.627.627,0,0,0,28.125,49.5Zm0-5h8.75a.627.627,0,0,0,.625-.625v-1.25A.627.627,0,0,0,36.875,42h-8.75a.627.627,0,0,0-.625.625v1.25A.627.627,0,0,0,28.125,44.5Z" transform="translate(0 -32)"/></svg>