<svg xmlns="http://www.w3.org/2000/svg" width="40" height="35.009" viewBox="0 0 40 35.009"><path d="M35.812,34.5C31.3,30.706,24.32,31.277,20,35.675,15.68,31.277,8.7,30.7,4.187,34.5a11.82,11.82,0,0,0-.828,17.281l13.7,13.961a4.1,4.1,0,0,0,5.875.008l13.7-13.961A11.829,11.829,0,0,0,35.812,34.5ZM33.969,49.152l-13.7,13.961a.321.321,0,0,1-.531,0L6.031,49.152A8.057,8.057,0,0,1,6.6,37.378a7.921,7.921,0,0,1,10.664.82L20,40.988,22.734,38.2A7.916,7.916,0,0,1,33.4,37.37,8.091,8.091,0,0,1,33.969,49.152Z" transform="translate(0 -31.978)"/></svg>